<?xml version="1.0" encoding="utf-8"?>
<!-- Generator: Adobe Illustrator 27.5.0, SVG Export Plug-In . SVG Version: 6.00 Build 0)  -->
<svg version="1.1" id="Layer_1" xmlns="http://www.w3.org/2000/svg" xmlns:xlink="http://www.w3.org/1999/xlink" x="0px" y="0px"
	 viewBox="0 0 195 97" style="enable-background:new 0 0 195 97;" xml:space="preserve">
<style type="text/css">
	.st0{fill:none;}
	.st1{fill:#2B2B2B;}
	.st2{fill:#CFAB66;}
</style>
<rect class="st0" width="195" height="97"/>
<g>
	<path class="st1" d="M104.4,56.6C104.4,56.6,104.4,56.5,104.4,56.6c-0.1-0.1-0.1-0.1-0.2,0l0,0.1l0.1,0.2l0,0.2l0,0.1
		c0,0,0,0.1,0,0.1c0,0,0,0,0.1,0.1l0.2,0.1l0.3,0.1c0.1,0,0.3,0.1,0.4,0.1c0.3,0,0.6,0.1,0.9,0c0.4,0,0.7-0.1,1-0.3
		c0.1-0.1,0.2-0.2,0.3-0.3c0.1-0.1,0.1-0.2,0.2-0.2c0-0.1,0.1-0.2,0.1-0.3c0-0.2-0.1-0.3-0.2-0.5c-0.2-0.2-0.4-0.3-0.6-0.4
		c0,0-0.7-0.2-1-0.3c0,0-0.5-0.2-0.6-0.2c-0.2-0.1-0.4-0.3-0.5-0.5c-0.1-0.2-0.1-0.3,0-0.5c0.1-0.2,0.2-0.4,0.4-0.5
		c0.2-0.1,0.4-0.1,0.7-0.1c0.1,0,0.3,0.1,0.4,0.1c0.1,0.1,0.2,0.1,0.3,0.2c0.1,0.1,0.2,0.1,0.2,0.2c0,0.1,0.1,0.1,0.1,0.2l0.1,0.1
		c0,0,0,0.1,0.1,0.1c0,0,0.1,0,0-0.1c0-0.1,0-0.2-0.1-0.2c0-0.1,0-0.1-0.1-0.2c0-0.1,0-0.1,0-0.2l0-0.2c0,0,0-0.1-0.1-0.1
		c0,0-0.1,0-0.1,0c0,0.1-0.1,0.1-0.1,0.1c0,0-0.1,0-0.1,0c0,0-0.5-0.1-0.6-0.1c-0.3,0-0.6,0-0.9,0c0,0-0.8,0.1-1,0.8
		c-0.1,0.3,0,0.6,0.2,0.9c0.2,0.2,0.4,0.3,0.7,0.4l1,0.3c0.2,0.1,0.5,0.2,0.7,0.3c0.2,0.2,0.3,0.5,0.2,0.8c-0.1,0.3-0.4,0.5-0.7,0.6
		c-0.2,0.1-0.5,0.1-0.7,0.1c-0.2,0-0.5-0.1-0.7-0.2c-0.2-0.1-0.4-0.2-0.5-0.4C104.5,56.9,104.4,56.8,104.4,56.6"/>
	<path class="st1" d="M114,53.5c0,0-1,0-1.1,0l-0.2,0l-0.1,0c0,0-0.1,0-0.1,0c0,0,0,0,0.1,0.1c0.1,0,0.2,0,0.2,0
		c0.2,0,0.4,0.2,0.5,0.4c0,0.1,0,0.2,0,0.3v2.2c0,0,0,0.4,0,0.5c0,0.1,0,0.2-0.1,0.3c0,0,0,0.1-0.3,0.2c0,0-0.1,0-0.2,0
		c0,0-0.1,0-0.1,0.1c0,0,0,0.1,0.1,0l0.8,0c0,0,0.8,0,1,0c0,0,0.6,0.1,0.8,0c0.2,0,0.5-0.1,0.7-0.2c0.1-0.1,0.2-0.1,0.2-0.2
		c0.1-0.1,0.1-0.2,0.2-0.3c0,0,0.1-0.1,0-0.2c0,0-0.1,0-0.1,0c-0.1,0.1-0.2,0.2-0.3,0.3c-0.2,0.1-0.5,0.2-0.7,0.2
		c-0.3,0-0.6,0-0.9,0c-0.2,0-0.3,0-0.4-0.1c0,0-0.1-0.1-0.1-0.3v-1.3c0,0,0-0.2,0.1-0.2l0.9,0c0.2,0,0.3,0.1,0.4,0.2
		c0,0.1,0.1,0.1,0.1,0.2l0,0.1c0,0,0,0.1,0.1,0.1c0,0,0.1,0,0-0.1c0,0,0-0.2,0-0.3c0-0.1,0-0.2,0-0.3l0-0.2c0,0,0-0.2,0-0.2
		c0,0,0-0.1-0.1-0.1c0,0,0,0-0.1,0.1c0,0.1,0,0.1-0.1,0.2c0,0,0,0.1-0.2,0.1c-0.1,0-0.3,0.1-0.4,0h-0.8c-0.1,0-0.1,0-0.2,0
		c0,0,0,0,0-0.2V54c0,0,0-0.3,0.2-0.3l0.9,0c0.2,0,0.4,0,0.5,0.1c0.1,0.1,0.2,0.1,0.3,0.2c0,0,0,0.1,0.1,0.1c0,0,0,0.1,0.1,0.1
		c0,0,0.1,0,0.1-0.1c0-0.1,0-0.1,0-0.2c0,0,0-0.2,0-0.2c0-0.1,0-0.1,0-0.2c0,0,0-0.2-0.1-0.2c0,0-0.2,0-0.2,0c-0.1,0-0.1,0-0.2,0
		L114,53.5L114,53.5z"/>
	<path class="st1" d="M141,53.5c0,0-1,0-1.1,0l-0.2,0c0,0-0.1,0-0.1,0s-0.1,0-0.1,0c0,0,0,0,0.1,0.1c0.1,0,0.2,0,0.2,0
		c0.2,0,0.4,0.2,0.5,0.4c0,0.1,0,0.2,0,0.3v2.2c0,0,0,0.4,0,0.5c0,0.1,0,0.2-0.1,0.3c0,0,0,0.1-0.3,0.2c0,0-0.1,0-0.2,0
		c0,0-0.1,0-0.1,0.1c0,0,0,0.1,0.1,0l0.8,0c0,0,0.8,0,1,0c0,0,0.6,0.1,0.8,0c0.2,0,0.5-0.1,0.7-0.2c0.1-0.1,0.2-0.1,0.2-0.2
		c0.1-0.1,0.1-0.2,0.2-0.3c0,0,0.1-0.1,0-0.2c0,0,0,0-0.1,0c-0.1,0.1-0.2,0.2-0.3,0.3c-0.2,0.1-0.5,0.2-0.7,0.2c-0.3,0-0.6,0-0.9,0
		c-0.1,0-0.3,0-0.4-0.1c0,0-0.1-0.1-0.1-0.3v-1.3c0,0,0-0.2,0.1-0.2l0.9,0c0.2,0,0.3,0.1,0.4,0.2c0,0.1,0.1,0.1,0.1,0.2l0,0.1
		c0,0,0,0.1,0.1,0.1c0,0,0.1,0,0-0.1c0,0,0-0.2,0-0.3c0-0.1,0-0.2,0-0.3l0-0.2c0,0,0-0.2,0-0.2c0,0,0-0.1-0.1-0.1c0,0,0,0-0.1,0.1
		c0,0.1,0,0.1-0.1,0.2c0,0,0,0.1-0.2,0.1c-0.1,0-0.3,0.1-0.4,0h-0.8c-0.1,0-0.1,0-0.2,0c0,0,0,0,0-0.2l0-1.2c0,0,0-0.3,0.2-0.3
		l0.9,0c0.2,0,0.4,0,0.5,0.1c0.1,0.1,0.2,0.1,0.3,0.2c0,0,0,0.1,0.1,0.1c0,0,0,0.1,0.1,0.1c0,0,0.1,0,0.1-0.1c0-0.1,0-0.1,0-0.2
		c0,0,0-0.2,0-0.2c0-0.1,0-0.1,0-0.2c0,0,0-0.2-0.1-0.2c0,0-0.2,0-0.2,0c-0.1,0-0.1,0-0.2,0L141,53.5L141,53.5z"/>
	<path class="st1" d="M125.6,53.7c0,0,0.1,0,0.1-0.1c0,0,0,0,0-0.1c0,0,0,0,0.1,0c0,0,0.1,0,0.1,0.1c0,0.1,0,0.2,0,0.3
		c0,0.1,0,0.2,0,0.2c0,0,0.1,0.3,0.1,0.3c0,0,0.1,0.2-0.1,0.1c0,0-0.1-0.2-0.1-0.3c-0.2-0.2-0.4-0.4-0.6-0.6
		c-0.2-0.1-0.4-0.2-0.6-0.3c-0.4-0.1-0.9-0.1-1.3,0c-0.4,0.1-0.8,0.3-1.1,0.7c-0.3,0.3-0.4,0.7-0.5,1.1c0,0.4,0.1,0.9,0.4,1.2
		c0.3,0.4,0.7,0.7,1.2,0.8c0.3,0.1,0.6,0.1,0.9,0.1c0.3,0,0.6,0,0.9-0.1c0.2-0.1,0.5-0.2,0.7-0.4l0.2-0.2c0,0,0.2-0.2,0.2-0.2
		c0,0,0.1,0-0.1,0.3c-0.2,0.2-0.3,0.3-0.5,0.4c-0.2,0.1-0.5,0.2-0.8,0.3c0,0-1.4,0.4-2.6-0.4c-0.7-0.4-1.1-1.1-1-1.8
		c0-0.6,0.3-1.2,0.8-1.5c0,0,0.7-0.7,2.1-0.7c0.5,0,1.1,0.1,1.5,0.4C125.4,53.6,125.5,53.7,125.6,53.7"/>
	<path class="st1" d="M131.6,53.6c0.1,0,0.7,0,0.7,0c0.2,0,0.5,0,0.7,0c0.3,0,0.6,0.1,0.8,0.2c0.4,0.2,0.6,0.7,0.4,1.2l0,0
		c0,0.1-0.1,0.2-0.2,0.2c-0.2,0.2-0.4,0.3-0.6,0.4c-0.1,0,0,0.1,0,0.1l0.1,0.1l0.4,0.6c0.2,0.3,0.4,0.5,0.7,0.7
		c0.1,0.1,0.3,0.3,0.5,0.4c0.1,0,0.1,0,0.2,0.1l0.1,0c0.1,0.1,0.1,0.1,0.1,0.1c0,0-0.1,0-0.1,0c-0.1,0-0.1,0-0.2,0
		c-0.1,0-0.2,0-0.2,0c-0.3,0-0.5-0.1-0.7-0.3c-0.2-0.2-0.4-0.3-0.5-0.5l-0.4-0.5c-0.1-0.2-0.3-0.3-0.4-0.5c-0.1-0.1-0.2-0.1-0.3-0.1
		c-0.1,0-0.5,0-0.5,0c0,0-0.1,0-0.1,0c0,0,0,0.1,0,0.1v0.9c0,0.1,0,0.3,0,0.3c0,0.2,0.1,0.3,0.2,0.5c0.1,0.1,0.3,0.2,0.5,0.2
		c0.2,0,0.2,0,0.2,0c0,0.1-0.1,0.1-0.1,0.1c-0.2,0-0.4,0-0.5,0c-0.3,0-0.5,0-0.8,0l-0.6,0c-0.1,0-0.1,0-0.1,0c0,0,0,0,0,0l0.1,0
		c0.1,0,0.1,0,0.2-0.1c0.1-0.1,0.2-0.1,0.2-0.3c0-0.2,0-0.3,0-0.5v-1.1l0-1.3c0-0.1,0-0.2,0-0.3c0-0.1,0-0.2-0.1-0.2
		c-0.1-0.1-0.2-0.1-0.3-0.2c-0.1,0-0.3,0-0.3,0c-0.1,0-0.1-0.1-0.1-0.1c0,0,0.1,0,0.1,0l0.2,0l0.4,0
		C131.3,53.6,131.5,53.6,131.6,53.6 M131.9,55.3c0,0.1,0.1,0.2,0.2,0.2h0c0.1,0,0.2,0,0.3,0c0.4,0,0.7-0.1,1-0.4
		c0.3-0.3,0.3-0.8-0.1-1.1c-0.4-0.4-1.2-0.4-1.2-0.4c-0.1,0-0.1,0-0.2,0.1c-0.1,0.1-0.1,0.2-0.1,0.2L131.9,55.3L131.9,55.3z"/>
	<path class="st1" d="M156.6,56.6C156.6,56.6,156.6,56.5,156.6,56.6c-0.1-0.1-0.1-0.1-0.2,0l0,0.1l0,0.2l0,0.2l0,0.1
		c0,0,0,0.1,0,0.1c0,0,0,0,0.1,0.1l0.2,0.1l0.3,0.1c0.1,0,0.3,0.1,0.4,0.1c0.3,0,0.6,0.1,0.9,0c0.4,0,0.7-0.1,1-0.3
		c0.1-0.1,0.2-0.2,0.3-0.3c0.1-0.1,0.1-0.2,0.1-0.2c0-0.1,0.1-0.2,0.1-0.3c0-0.2-0.1-0.3-0.2-0.5c-0.1-0.2-0.3-0.3-0.6-0.4
		c0,0-0.6-0.2-1-0.3c0,0-0.5-0.2-0.6-0.2c-0.2-0.1-0.4-0.3-0.5-0.5c-0.1-0.2-0.1-0.3,0-0.5c0.1-0.2,0.2-0.4,0.4-0.5
		c0.2-0.1,0.4-0.1,0.6-0.1c0.1,0,0.3,0.1,0.4,0.1c0.1,0.1,0.2,0.1,0.3,0.2c0.1,0.1,0.2,0.1,0.2,0.2c0,0.1,0.1,0.1,0.1,0.2l0.1,0.1
		c0,0,0,0.1,0.1,0.1c0,0,0.1,0,0-0.1c0-0.1,0-0.2-0.1-0.2c0-0.1,0-0.1-0.1-0.2c0-0.1,0-0.1,0-0.2l0-0.2c0,0,0-0.1,0-0.1
		c0,0-0.1,0-0.1,0c0,0.1-0.1,0.1-0.1,0.1c0,0-0.1,0-0.1,0c0,0-0.5-0.1-0.6-0.1c-0.3,0-0.6,0-0.9,0c0,0-0.8,0.1-0.9,0.7
		c-0.1,0.3,0,0.6,0.2,0.9c0.2,0.2,0.4,0.3,0.7,0.4l1,0.3c0.2,0.1,0.5,0.2,0.7,0.3c0.2,0.2,0.3,0.5,0.2,0.8c-0.1,0.3-0.3,0.5-0.7,0.6
		c-0.2,0.1-0.5,0.1-0.7,0.1c-0.2,0-0.5-0.1-0.7-0.2c-0.2-0.1-0.4-0.2-0.5-0.4C156.7,56.9,156.6,56.8,156.6,56.6"/>
	<path class="st1" d="M151.9,53.5h-3.7c0,0-0.2,0-0.2,0.1c0,0.1,0,0.1,0,0.2l0,0.2c0,0,0,0.1,0,0.2c0,0,0.1,0,0.1-0.1
		c0-0.1,0.1-0.1,0.1-0.2c0.1-0.1,0.3-0.2,0.4-0.2h1c0.1,0,0.1,0.1,0.1,0.1v0c0,0,0,0,0,0v3.2c0,0.2-0.1,0.4-0.3,0.4
		c-0.2,0-0.3,0.1-0.5,0.1c0,0-0.3,0-0.2,0.1c0,0,0,0.1,0.2,0l0.8,0c0,0,1.7,0,2,0c0,0,0.1,0,0.1-0.1c0,0,0,0-0.2,0
		c-0.3,0-0.5,0-0.8-0.1c0,0-0.3-0.1-0.3-0.3c0-0.1,0-0.3,0-0.4v-2.8c0-0.1,0.1-0.1,0.1-0.1h0l0.9,0c0,0,0.4,0,0.5,0.2l0.1,0.2
		c0,0,0,0.1,0.1,0.1c0,0,0.1,0,0-0.1l0-0.2c0,0,0-0.2,0-0.2c0,0,0-0.1-0.1-0.1L151.9,53.5L151.9,53.5z"/>
	<path class="st1" d="M90,54.5c0,0.5-0.4,0.9-0.9,0.9v0c0.8,0.1,1.2,0.4,1.2,1.1c0,1-0.9,1.1-2,1.1h-0.9c-0.3,0-0.6,0-0.8,0
		c-0.1,0-0.1,0-0.1-0.1c0,0,0-0.1,0.1-0.1c0,0,0.1,0,0.2,0c0.2,0,0.3,0,0.3-0.2v-3.6c0-0.2,0-0.2-0.3-0.2c-0.1,0-0.2,0-0.2,0
		c0,0-0.1,0-0.1-0.1c0,0,0-0.1,0.1-0.1c0.2,0,0.5,0,0.8,0c0.3,0,0.6,0,0.7,0h0.2C89.4,53.4,90,53.7,90,54.5 M87.7,55.4h0.6
		c0.7,0,1-0.3,1-0.9c0-0.7-0.4-0.9-1-0.9h-0.1c-0.4,0-0.5,0-0.5,0.2L87.7,55.4L87.7,55.4z M87.7,57.3c0,0.2,0,0.3,0.3,0.3h0.3
		c0.6,0,1.2-0.2,1.2-1c0-0.7-0.4-1-1.3-1h-0.5L87.7,57.3L87.7,57.3z"/>
	<path class="st1" d="M95.1,57.6c-0.1,0-0.2,0-0.2,0c0,0-0.1,0-0.1-0.1c0,0,0-0.1,0.1-0.1C94.9,57.5,95,57.5,95.1,57.6
		c0.2-0.1,0.3-0.2,0.3-0.3V56L94,53.8c-0.1-0.1-0.2-0.2-0.4-0.2c-0.1,0-0.1,0-0.2,0c-0.1,0-0.1,0-0.1-0.1c0-0.1,0-0.1,0.1-0.1
		c0.2,0,0.6,0,0.8,0c0.4,0,0.7,0,0.8,0c0.1,0,0.1,0,0.1,0.1c0,0,0,0.1-0.1,0.1c-0.1,0-0.1,0-0.2,0c-0.2,0-0.2,0.1,0,0.3l1,1.9l1.2-2
		c0.1-0.1,0.1-0.2-0.1-0.2c-0.1,0-0.2,0-0.2,0c-0.1,0-0.1,0-0.1-0.1c0,0,0-0.1,0.1-0.1c0.2,0,0.3,0,0.5,0c0.2,0,0.3,0,0.5,0
		c0.1,0,0.1,0,0.1,0.1c0,0,0,0.1-0.1,0.1c-0.1,0-0.1,0-0.2,0c-0.2,0-0.3,0.1-0.4,0.2L96,55.8v1.5c0,0.2,0,0.2,0.3,0.2
		c0.1,0,0.2,0,0.2,0c0,0,0.1,0,0.1,0.1c0,0,0,0.1-0.1,0.1c0,0-0.1,0-0.2,0c-0.2,0-0.4,0-0.6,0C95.5,57.6,95.2,57.6,95.1,57.6"/>
	<path class="st2" d="M13.1,25.5L13.1,25.5c1,0,1.1,0.5,1.1,0.7l0,21.8c0,0.2-0.1,0.7-1,0.7h-0.1V49h3.5v-0.3h-0.1c-1,0-1-0.6-1-0.7
		V26.2c0-0.1,0-0.7,1-0.7h0.1v-0.4h-3.5V25.5L13.1,25.5z"/>
	<path class="st2" d="M31.2,48.3C31.2,48.3,31.1,48.3,31.2,48.3L21.1,25.2l0-0.1h-2.4v0.4h0.1c0.9,0,1,0.5,1,0.7l0,21.8
		c0,0.2-0.1,0.7-1,0.7h-0.1V49h2.7v-0.3h-0.1c-0.9,0-1-0.5-1-0.7l0-21.5c0,0,0,0,0,0L30.1,49l0,0.1h1.3L41,25.9c0,0,0,0,0,0l0,22
		c-0.1,0.5-0.4,0.7-1,0.7h-0.1V49h3.5v-0.3h-0.1c-0.6,0-0.9-0.2-1-0.7V26.2c0-0.1,0-0.7,1-0.7h0.1v-0.4h-2.6L31.2,48.3L31.2,48.3z"
		/>
	<path class="st2" d="M47.9,26.2c0-0.3,0.1-0.7,0.8-0.7h2.6c5.1,0,8,2.5,8,7v0.4c0,4.4-2.9,7-8,7h-3.1c-0.2,0-0.3-0.2-0.3-0.4V26.2
		L47.9,26.2z M52.3,25.1h-6.9v0.3h0.1c0.9,0,1,0.5,1,0.7l0,21.8c0,0.2-0.1,0.7-1,0.7h-0.1V49H49v-0.3h-0.1c-1,0-1-0.6-1-0.7v-7.4
		c0-0.2,0.1-0.3,0.3-0.3h4.1c5.1,0,8.6-3.1,8.6-7.6C61,28.2,57.4,25.1,52.3,25.1L52.3,25.1z"/>
	<path class="st2" d="M95,46.1c0,0-1,2.4-3.3,2.6h-7c-1.5,0-2.4-0.2-2.5-1.2V37.3h6.9c1.8,0,1.8,0.1,1.8,0.7v1.2h0.3v-3.5h-0.3v0.4
		c0,0.6,0,0.7-1.8,0.7h-6.9V26.7c0.1-1,1.1-1.2,2.5-1.2c2.3,0,4.7,0,7,0C94,25.6,95,28,95,28.1l0,0.1h0.4l-1.1-2.8
		c-0.1-0.1-0.2-0.2-0.3-0.2H79.8v0.4h0.1c0.9,0,1,0.5,1,0.7l0,21.8c0,0.2-0.1,0.7-1,0.7h-0.1V49H94c0.1,0,0.2,0,0.3-0.2l1.1-2.8
		L95,46.1L95,46.1L95,46.1z"/>
	<path class="st2" d="M105.8,36.3c-3.2-1.4-6.2-2.6-6.1-6c0-1.6,0.6-5.4,5.6-5.4c3.6,0,4.8,3.3,4.9,4l0,0.1h0.3l-0.4-3
		c-0.4-1.2-4.8-1.4-4.8-1.4c-2.1-0.1-4.1,0.6-5.5,1.9c-1.1,1-1.7,2.4-1.7,3.8c-0.1,4,3.4,5.6,6.8,7.1c3.1,1.4,6,2.7,6,5.8
		c0,5.1-3.3,5.8-6.5,5.8c-3.5,0-6.5-2.7-7-4.6l0-0.1h-0.3l0.5,3.1c0,0.2,0.1,0.3,0.3,0.4c0.3,0.2,2.8,1.5,6.6,1.5c5.1,0,8-2.3,8-6.3
		C112.5,39.2,109.1,37.7,105.8,36.3L105.8,36.3z"/>
	<path class="st2" d="M122.4,36.3c-3.2-1.4-6.2-2.6-6.1-6c0-1.6,0.6-5.4,5.6-5.4c3.6,0,4.8,3.3,4.9,4l0,0.1h0.3l-0.4-3
		c-0.4-1.2-4.8-1.4-4.8-1.4c-2.1-0.1-4.1,0.6-5.5,1.9c-1.1,1-1.7,2.4-1.7,3.8c-0.1,4,3.4,5.6,6.8,7.1c3.1,1.4,6,2.7,6,5.8
		c0,5.1-3.3,5.8-6.5,5.8c-3.5,0-6.5-2.7-7-4.6l0-0.1h-0.3l0.5,3.1c0,0.2,0.1,0.3,0.3,0.4c0.3,0.2,2.8,1.5,6.6,1.5c5.1,0,8-2.3,8-6.3
		C129.1,39.2,125.7,37.7,122.4,36.3L122.4,36.3z"/>
	<path class="st2" d="M130.7,25.5L130.7,25.5c1,0,1.1,0.5,1.1,0.7l0,21.8c0,0.2-0.1,0.7-1,0.7h-0.1V49h3.5v-0.3h-0.1
		c-1,0-1-0.6-1-0.7V26.2c0-0.1,0-0.7,1-0.7h0.1v-0.4h-3.5V25.5L130.7,25.5z"/>
	<path class="st2" d="M148.9,48.9c-5.2,0-9.9-4.1-11.2-9.7c-0.8-3.4-0.3-6.9,1.5-9.6c1.4-2.3,3.6-3.8,6.1-4.3c0.6-0.1,1.3-0.2,2-0.2
		c5.2,0,10,4.2,11.3,9.7v0c0.8,3.3,0.3,6.8-1.4,9.5c-1.5,2.3-3.7,3.9-6.2,4.4C150.2,48.9,149.6,48.9,148.9,48.9L148.9,48.9z
		 M148.1,24.6c-1.4,0-2.8,0.2-4.1,0.7c-6.4,2.3-9.8,9.4-7.5,15.8c1.8,4.9,6.5,8.2,11.7,8.2c1.4,0,2.8-0.2,4.2-0.7
		c6.5-2.3,9.8-9.4,7.5-15.8C158,27.9,153.3,24.6,148.1,24.6L148.1,24.6z"/>
	<path class="st2" d="M179.2,25.1v0.4h0.1c1,0,1,0.6,1,0.7v20.2c0,0,0,0.1,0,0.1c0,0-0.1,0-0.1,0l-15.3-21c-0.2-0.2-0.4-0.3-0.7-0.3
		h-2.3v0.4h0.1c0.9,0,1,0.5,1,0.7l0,21.8c0,0.2-0.1,0.7-1,0.7h-0.1V49h2.7v-0.3h-0.1c-0.9,0-1-0.5-1-0.7V26.5c0,0,0-0.1,0-0.1
		c0,0,0.1,0,0.1,0l16.5,22.3c0.1,0.1,0.2,0.2,0.3,0.2h0.3l0-22.8c0.1-0.5,0.4-0.7,1-0.7h0.1v-0.4H179.2L179.2,25.1z"/>
	<path class="st2" d="M68.3,39.9h-3.1c-0.2,0-0.3-0.2-0.3-0.4V26.2c0-0.3,0.1-0.7,0.8-0.7h2.6c5.1,0,8,2.5,8,7v0.4
		C76.3,37.3,73.4,39.9,68.3,39.9L68.3,39.9z M82.5,57.3c-2.2,0-3.9-7.4-5.3-10.8c-1.2-2.8-2.4-5.7-4.2-6.9c3.1-1.1,5-3.7,5-7
		c0-4.4-3.6-7.5-8.6-7.5h-6.9v0.3h0.1c0.9,0,1,0.5,1,0.7l0,21.8c0,0.2-0.1,0.7-1,0.7h-0.1V49H66v-0.3h-0.1c-1,0-1-0.6-1-0.7v-7.4
		c0-0.2,0.1-0.3,0.3-0.3h4.1c1,0,2-0.1,2.9-0.4c1.2,0.9,2.1,3.1,3.1,5.5c1.5,3.8,3.6,12.3,7.2,12.3h0.1L82.5,57.3L82.5,57.3
		L82.5,57.3z"/>
	<polygon class="st1" points="53.1,71.8 53.1,67.2 53.9,67.2 53.9,71.8 53.1,71.8 	"/>
	<path class="st1" d="M58.7,71.1l0.6-0.6c0.1,0.1,0.2,0.2,0.3,0.3c0.1,0.1,0.2,0.2,0.4,0.2c0.1,0.1,0.3,0.1,0.5,0.1
		c0.3,0,0.5-0.1,0.6-0.2c0.1-0.1,0.2-0.3,0.2-0.4c0-0.2-0.1-0.3-0.2-0.5c-0.2-0.1-0.4-0.2-0.9-0.3c-0.3-0.1-0.5-0.1-0.7-0.3
		c-0.2-0.1-0.3-0.3-0.4-0.5C59,68.8,59,68.6,59,68.4c0-0.2,0.1-0.4,0.2-0.6c0.1-0.2,0.3-0.4,0.5-0.5c0.2-0.1,0.5-0.2,0.9-0.2
		c0.2,0,0.4,0,0.6,0.1c0.2,0.1,0.3,0.1,0.4,0.2c0.1,0.1,0.2,0.1,0.3,0.2c0.1,0.1,0.1,0.1,0.1,0.2l-0.6,0.5c0,0-0.1-0.1-0.2-0.1
		c-0.1-0.1-0.2-0.1-0.3-0.2c-0.1-0.1-0.3-0.1-0.5-0.1c-0.2,0-0.4,0.1-0.5,0.2c-0.1,0.1-0.2,0.2-0.2,0.3c0,0.2,0.1,0.3,0.2,0.4
		c0.1,0.1,0.4,0.2,0.8,0.3c0.2,0.1,0.5,0.1,0.7,0.2c0.2,0.1,0.4,0.3,0.5,0.5c0.1,0.2,0.2,0.5,0.2,0.8c0,0.3-0.1,0.5-0.2,0.7
		c-0.1,0.2-0.3,0.4-0.6,0.5c-0.2,0.1-0.5,0.2-0.8,0.2c-0.3,0-0.6,0-0.8-0.1c-0.2-0.1-0.4-0.2-0.6-0.3C59,71.3,58.8,71.2,58.7,71.1
		L58.7,71.1z"/>
	<polygon class="st1" points="67.2,71.8 67.2,67.2 68,67.2 68,71 70.3,71 70.3,71.8 67.2,71.8 	"/>
	<path class="st1" d="M76.3,69.9h1.2l-0.6-1.8L76.3,69.9L76.3,69.9z M74.7,71.8l1.7-4.6h0.9l1.7,4.6h-1l-0.4-1.2H76l-0.4,1.2H74.7
		L74.7,71.8z"/>
	<polygon class="st1" points="89,71.8 89.2,67.2 90,67.2 91.3,69.4 92.5,67.2 93.3,67.2 93.6,71.8 92.7,71.8 92.6,68.6 91.5,70.5 
		91.1,70.5 90,68.7 89.8,71.8 89,71.8 	"/>
	<path class="st1" d="M98.5,70.1v-2.9h0.9V70c0,0.3,0.1,0.6,0.2,0.8c0.1,0.2,0.4,0.3,0.8,0.3c0.4,0,0.6-0.1,0.8-0.3
		c0.1-0.2,0.2-0.5,0.2-0.8v-2.7h0.9v2.9c0,0.3-0.1,0.6-0.2,0.9c-0.1,0.3-0.4,0.5-0.6,0.6c-0.3,0.2-0.6,0.2-1,0.2
		c-0.4,0-0.7-0.1-1-0.2c-0.3-0.2-0.5-0.4-0.6-0.6C98.6,70.7,98.5,70.4,98.5,70.1L98.5,70.1z"/>
	<path class="st1" d="M106.7,71.3l0.6-0.5c0.1,0.2,0.3,0.3,0.4,0.3c0.1,0.1,0.3,0.1,0.4,0.1c0.2,0,0.3-0.1,0.5-0.2
		c0.1-0.1,0.2-0.3,0.2-0.5v-3.2h0.9v3.2c0,0.3,0,0.5-0.1,0.7c-0.1,0.2-0.2,0.3-0.3,0.5c-0.1,0.1-0.3,0.2-0.5,0.2
		c-0.2,0.1-0.4,0.1-0.5,0.1c-0.4,0-0.6-0.1-0.9-0.2C107.1,71.6,106.9,71.5,106.7,71.3L106.7,71.3z"/>
	<polygon class="st1" points="114.7,71.8 114.7,67.2 117.6,67.2 117.6,68 115.5,68 115.5,69.1 117.1,69.1 117.1,69.8 115.5,69.8 
		115.5,71 117.8,71 117.8,71.8 114.7,71.8 	"/>
	<path class="st1" d="M123.5,69.3h0.7c0.2,0,0.4-0.1,0.5-0.2c0.1-0.1,0.2-0.3,0.2-0.5c0-0.2-0.1-0.4-0.2-0.5
		c-0.1-0.1-0.3-0.2-0.5-0.2h-0.7V69.3L123.5,69.3z M122.7,71.8v-4.6h1.5c0.3,0,0.5,0,0.7,0.1c0.2,0.1,0.4,0.2,0.5,0.3
		c0.1,0.1,0.2,0.3,0.3,0.4c0.1,0.2,0.1,0.3,0.1,0.5c0,0.3-0.1,0.5-0.2,0.8c-0.1,0.2-0.3,0.4-0.6,0.5l1.1,1.9h-1l-0.9-1.8h-0.7v1.8
		H122.7L122.7,71.8z"/>
	<polygon class="st1" points="130.8,71.8 130.8,67.2 133.7,67.2 133.7,68 131.7,68 131.7,69.1 133.2,69.1 133.2,69.8 131.7,69.8 
		131.7,71 133.9,71 133.9,71.8 130.8,71.8 	"/>
	<path class="st1" d="M138.5,71.1l0.6-0.6c0.1,0.1,0.2,0.2,0.3,0.3c0.1,0.1,0.2,0.2,0.4,0.2c0.1,0.1,0.3,0.1,0.5,0.1
		c0.3,0,0.5-0.1,0.6-0.2c0.1-0.1,0.2-0.3,0.2-0.4c0-0.2-0.1-0.3-0.2-0.5c-0.2-0.1-0.4-0.2-0.9-0.3c-0.3-0.1-0.5-0.1-0.7-0.3
		c-0.2-0.1-0.3-0.3-0.4-0.5c-0.1-0.2-0.1-0.4-0.1-0.6c0-0.2,0.1-0.4,0.2-0.6c0.1-0.2,0.3-0.4,0.5-0.5c0.2-0.1,0.5-0.2,0.9-0.2
		c0.2,0,0.4,0,0.6,0.1c0.2,0.1,0.3,0.1,0.4,0.2c0.1,0.1,0.2,0.1,0.3,0.2c0.1,0.1,0.1,0.1,0.1,0.2l-0.6,0.5c0,0-0.1-0.1-0.2-0.1
		c-0.1-0.1-0.2-0.1-0.3-0.2c-0.1-0.1-0.3-0.1-0.5-0.1c-0.2,0-0.4,0.1-0.5,0.2c-0.1,0.1-0.2,0.2-0.2,0.3c0,0.2,0.1,0.3,0.2,0.4
		c0.1,0.1,0.4,0.2,0.8,0.3c0.2,0.1,0.5,0.1,0.7,0.2c0.2,0.1,0.4,0.3,0.5,0.5c0.1,0.2,0.2,0.5,0.2,0.8c0,0.3-0.1,0.5-0.2,0.7
		c-0.1,0.2-0.3,0.4-0.6,0.5c-0.2,0.1-0.5,0.2-0.8,0.2c-0.3,0-0.6,0-0.8-0.1c-0.2-0.1-0.4-0.2-0.6-0.3
		C138.7,71.3,138.6,71.2,138.5,71.1L138.5,71.1z"/>
</g>
</svg>
